HIERARCHY
ROOT Hips
{
  OFFSET 13.6774 106.653 -34.4427
  CHANNELS 6 Xposition Yposition Zposition Zrotation Xrotation Yrotation
  JOINT ToSpine
  {
    OFFSET -2.69724 7.43032 -0.144315
    CHANNELS 3 Zrotation Xrotation Yrotation
    JOINT Spine
    {
      OFFSET -0.0310711 10.7595 1.96963
      CHANNELS 3 Zrotation Xrotation Yrotation
      JOINT Spine1
      {
        OFFSET 19.9056 3.91189 0.764692
        CHANNELS 3 Zrotation Xrotation Yrotation
        JOINT Neck
        {
          OFFSET 25.9749 7.03908 -0.130764
          CHANNELS 3 Zrotation Xrotation Yrotation
          JOINT Head
          {
            OFFSET 9.52751 0.295786 -0.907742
            CHANNELS 3 Zrotation Xrotation Yrotation
            End Site
            {
              OFFSET 16.4037 0.713936 2.7358
            }
          }
        }
        JOINT LeftShoulder
        {
          OFFSET 17.7449 4.33886 11.7777
          CHANNELS 3 Zrotation Xrotation Yrotation
          JOINT LeftArm
          {
            OFFSET 0.911315 1.27913 9.80584
            CHANNELS 3 Zrotation Xrotation Yrotation
            JOINT LeftForeArm
            {
              OFFSET 28.6126 1.18197 -3.53199
              CHANNELS 3 Zrotation Xrotation Yrotation
              JOINT LeftHand
              {
                OFFSET 27.5088 0.0218783 0.327423
                CHANNELS 3 Zrotation Xrotation Yrotation
                End Site
                {
                  OFFSET 18.6038 -0.000155887 0.382096
                }
              }
            }
          }
        }
        JOINT RightShoulder
        {
          OFFSET 17.1009 2.89543 -12.2328
          CHANNELS 3 Zrotation Xrotation Yrotation
          JOINT RightArm
          {
            OFFSET 1.4228 0.178766 -10.211
            CHANNELS 3 Zrotation Xrotation Yrotation
            JOINT RightForeArm
            {
              OFFSET 28.733 1.87905 2.64907
              CHANNELS 3 Zrotation Xrotation Yrotation
              JOINT RightHand
              {
                OFFSET 27.4588 0.290562 -0.101845
                CHANNELS 3 Zrotation Xrotation Yrotation
                End Site
                {
                  OFFSET 17.8396 -0.255518 -0.000602873
                }
              }
            }
          }
        }
      }
    }
  }
  JOINT LeftUpLeg
  {
    OFFSET -5.61296 -2.22332 -10.2353
    CHANNELS 3 Zrotation Xrotation Yrotation
    JOINT LeftLeg
    {
      OFFSET 2.56703 -44.7417 -7.93097
      CHANNELS 3 Zrotation Xrotation Yrotation
      JOINT LeftFoot
      {
        OFFSET 3.16933 -46.5642 -3.96578
        CHANNELS 3 Zrotation Xrotation Yrotation
        JOINT LeftToeBase
        {
          OFFSET 0.346054 -6.02161 12.8035
          CHANNELS 3 Zrotation Xrotation Yrotation
          End Site
          {
            OFFSET 0.134235 -1.35082 5.13018
          }
        }
      }
    }
  }
  JOINT RightUpLeg
  {
    OFFSET -5.7928 -1.72406 10.6446
    CHANNELS 3 Zrotation Xrotation Yrotation
    JOINT RightLeg
    {
      OFFSET -2.57161 -44.7178 -7.85259
      CHANNELS 3 Zrotation Xrotation Yrotation
      JOINT RightFoot
      {
        OFFSET -3.10148 -46.5936 -4.03391
        CHANNELS 3 Zrotation Xrotation Yrotation
        JOINT RightToeBase
        {
          OFFSET -0.0828122 -6.13587 12.8035
          CHANNELS 3 Zrotation Xrotation Yrotation
          End Site
          {
            OFFSET -0.131328 -1.35082 5.13018
          }
        }
      }
    }
  }
}
MOTION
Frames: 19
Frame Time: 0.03333333333333333
0.0000 93.1000 0.0000 -73.9758 -9.1521 168.1604 -71.3201 -0.7252 88.1273 103.8065 66.9754 -11.9851 0.9079 17.0680 0.2286 -142.8089 8.4182 -158.6328 -144.3356 42.8523 -174.8118 -1.0116 -16.4042 -26.7699 -132.4150 -6.9610 -66.6187 3.8656 1.0292 -72.9675 0.0921 0.3237 0.0652 -1.4016 5.6069 23.0108 -52.1683 -20.3889 140.0101 8.5005 2.1289 107.3723 -0.2457 -0.3753 -0.3611 -50.3646 6.2171 122.0302 -4.5369 48.3518 -13.0068 -15.0553 6.4902 3.0509 5.6842 -11.6667 -16.0348 -30.9719 -13.9232 76.9651 5.8522 59.8178 9.1497 -9.0375 15.0709 -0.3124 1.5296 -28.1491 -9.3018 
0.0000 93.1000 0.0000 -72.0770 -6.6850 172.5175 -71.1242 -0.9311 88.0373 101.9690 67.9857 -10.9392 1.8506 16.6727 1.1381 -144.6503 6.8452 -160.8539 -143.1317 41.7505 -175.8371 -0.9893 -15.9411 -26.1382 -136.9797 -6.1787 -67.4225 6.5609 0.4558 -76.3763 -0.3622 -0.0018 0.4995 -1.9087 5.9966 22.9840 -50.5530 -20.9997 140.2055 10.8470 3.3025 109.5430 -0.8006 0.0218 -0.4866 -50.7452 5.0028 120.8110 -1.9385 40.6911 -2.0252 -8.5787 -3.0953 1.5740 6.5988 -10.5316 -16.5751 -25.5468 -10.5426 84.9947 7.8368 63.5982 15.0945 -7.3837 15.8349 -1.1238 -0.5703 -31.5224 -20.0438 
0.0000 93.1000 0.0000 -71.7571 -8.4090 176.3714 -71.1255 1.3502 87.5893 100.6810 68.3973 -10.1724 1.3783 16.7986 3.6168 -145.1124 5.9573 -164.0931 -141.8161 39.8508 -180.4957 0.2200 -15.1433 -27.0172 -140.9063 -5.0049 -71.4248 8.4773 2.1093 -76.8156 -0.2108 -0.0285 0.1417 -0.1153 4.6623 23.8282 -49.8122 -23.1472 142.2461 9.9721 3.4752 110.5303 1.0016 0.1827 0.8228 -51.3416 7.0254 119.3362 -1.7144 37.5209 0.2258 -2.5447 -7.5810 -1.3869 3.6002 -8.0227 -6.0615 -26.2672 -8.2843 90.5490 6.4934 61.6996 9.9459 -9.8915 13.6801 2.0717 1.6629 -32.0388 -24.2681 
0.0000 93.1000 0.0000 -72.2399 -11.7908 -177.9981 -71.0627 0.2179 87.2598 97.9819 68.4479 -9.6240 0.7539 16.1401 4.3272 -142.8482 5.5437 -168.2266 -142.1228 39.7844 177.1275 -1.0409 -16.0394 -31.1963 -142.9888 -2.9779 -77.9758 10.1474 1.4687 -77.5396 0.3203 0.1054 0.0299 -0.8683 4.4013 27.4125 -49.0878 -23.0734 140.8623 10.6181 4.2309 112.5405 0.5142 -0.4937 -0.5548 -48.2104 8.9837 113.1584 -2.2179 40.3566 0.3402 -1.3871 -14.0411 -2.0168 1.8601 -5.9480 -1.3670 -28.2106 -12.2497 92.4716 4.2395 60.1152 2.6575 -13.7484 9.7894 2.3118 1.4628 -25.4594 -23.3429 
0.0000 93.1000 0.0000 -71.8728 -14.3080 -175.9318 -70.8834 0.7041 87.8316 93.7491 68.1814 -7.9991 1.5376 16.4347 5.0283 -141.8326 5.8488 -172.4724 -142.4978 39.9178 176.6089 -0.6848 -17.1556 -31.9756 -144.0795 0.9176 -84.3740 11.2057 2.8162 -75.2477 0.0643 -0.6214 0.0163 -1.4626 4.6247 30.2657 -48.4714 -25.4846 140.2034 9.2762 4.5355 113.7709 -0.1412 0.4382 -0.8562 -45.0902 11.4527 111.3102 -2.5394 44.3339 -2.9011 -0.9400 -15.7068 -1.5483 0.6325 -5.6205 0.9598 -30.3534 -18.0122 92.4306 2.8156 55.2222 -3.2723 -17.6263 11.5221 2.7841 1.2125 -22.9373 -26.5115 
0.0000 93.1000 0.0000 -71.1088 -15.6843 -173.9254 -71.1384 -0.9511 87.9947 93.8038 69.7595 -6.7166 2.1144 18.1559 2.1809 -142.0334 7.0966 -173.6291 -142.2517 41.0416 175.5762 -1.7378 -18.1341 -33.7533 -143.0287 3.9326 -87.3746 12.0008 2.7714 -73.5777 -0.6200 -0.6392 0.8066 -3.0615 5.5125 31.9621 -47.1177 -26.0805 141.5927 9.6820 4.0821 114.4710 -1.5535 0.4788 -1.6222 -41.1790 15.5457 110.1726 -3.3370 49.8108 -4.4625 -0.1146 -16.6683 -0.3422 0.7706 -5.7399 3.0148 -35.1089 -19.0283 93.2615 1.5617 51.0337 -4.5571 -16.1039 12.9070 0.1730 0.0122 -18.3340 -22.3361 
0.0000 93.1000 0.0000 -72.0956 -14.9111 -173.4311 -71.0628 0.2546 87.7367 96.4055 71.2396 -7.0812 1.7434 20.1007 0.9007 -142.0979 6.7215 -172.1067 -145.0534 41.4801 -180.5491 -1.3271 -18.1252 -35.1553 -141.6804 5.0098 -87.0448 13.1866 4.0410 -73.3294 -0.2474 -0.4264 -0.5334 -1.7359 5.4949 31.9222 -47.8056 -26.0767 142.3526 9.2924 4.0802 113.6344 -0.6319 0.0749 -0.4568 -39.9185 17.4990 108.5493 -4.6045 52.5557 -5.1448 -1.3416 -16.8554 -1.9860 2.1458 -7.0739 5.3795 -38.9389 -18.3349 95.2488 1.8018 45.3221 4.5635 -12.7634 16.8731 1.6743 0.8854 -22.6233 -19.2999 
0.0000 93.1000 0.0000 -72.0092 -13.6273 -172.8498 -70.9746 0.3790 87.9719 95.9434 71.2838 -6.8841 1.4975 21.0738 -0.0734 -141.9912 6.0395 -168.6116 -146.7662 41.6378 -177.8797 -1.3189 -18.8153 -36.5326 -141.8547 4.8630 -86.0613 13.7013 3.6658 -74.3637 -0.1469 -0.4159 0.0509 -1.7610 6.3134 33.1249 -46.8252 -23.1462 143.2938 9.8302 3.4023 111.5437 0.1179 0.1163 0.2622 -37.1809 19.2400 105.1109 -4.5400 55.1883 -3.8410 -0.9433 -18.0992 -2.2019 0.9693 -5.6191 6.8774 -41.2106 -18.4217 95.9813 3.0973 41.6952 9.7321 -10.0776 16.9466 1.0862 1.6742 -32.2202 -19.7974 
0.0000 93.1000 0.0000 -72.2343 -13.1340 -173.3016 -71.0012 0.0652 87.9154 94.7647 72.4810 -5.5685 1.2383 22.4250 -0.7894 -143.2550 5.7895 -168.4866 -148.2712 40.9341 -176.4945 -1.7427 -18.1868 -37.3831 -141.2891 5.8114 -84.0560 13.0715 3.0893 -75.3236 0.0718 0.2640 0.1287 -1.6276 6.6359 35.8942 -47.2024 -20.4985 143.3922 9.0904 2.9239 110.4893 0.6567 -0.6501 0.8697 -36.1617 19.4554 103.7737 -4.6816 56.4106 -3.3760 -1.0017 -18.2063 -2.8603 0.8548 -5.1747 6.3582 -43.3641 -18.0694 93.2287 2.2234 40.3974 7.7905 -7.4264 12.0160 1.1953 1.7732 -33.6794 -13.9005 
0.0000 93.1000 0.0000 -72.1451 -12.2337 -173.0341 -71.1856 0.0086 87.9852 94.0922 73.2376 -4.8670 1.5916 23.4325 -1.0726 -142.2296 4.7869 -168.2123 -147.1329 40.6885 -177.3089 -1.7907 -19.0891 -37.8857 -140.9487 3.5071 -81.9654 12.9145 2.6778 -75.4119 0.1375 -0.0845 0.1045 -1.9966 6.8009 37.2391 -46.8446 -20.2898 144.0949 8.5037 3.1140 109.5078 0.3254 -0.2707 0.2142 -35.8452 20.0896 101.5418 -4.6751 57.3194 -2.0987 -0.5732 -17.6822 -2.4789 -0.4341 -4.0507 6.4050 -44.1508 -17.8462 88.9816 1.9943 37.8589 10.0573 -9.4879 9.6029 1.1517 1.4973 -37.1833 -19.2667 
0.0000 93.1000 0.0000 -73.3402 -11.0076 -174.3025 -71.1245 -0.2164 88.0231 95.0171 73.0601 -5.7145 1.8910 24.0561 -1.8950 -142.2587 4.5545 -167.4247 -147.0368 40.1722 -176.1487 -2.0734 -18.9726 -38.8134 -140.7657 1.9204 -79.8966 11.0292 2.9578 -74.9830 0.1787 0.2795 0.2479 -2.0222 6.8562 38.0312 -46.6898 -18.9443 145.6769 8.3328 2.3581 108.3530 0.4321 -0.6812 0.1451 -36.0282 21.1812 101.2541 -4.9649 56.9642 -2.2266 0.0822 -16.9426 -2.7981 -0.8790 -2.2051 8.0253 -45.0692 -17.8755 85.3265 2.0026 36.7920 10.1651 -12.4978 6.8538 1.5630 1.3399 -36.9164 -19.0723 
0.0000 93.1000 0.0000 -73.0828 -11.1139 -174.2965 -71.0591 0.3031 88.0622 93.8014 73.1032 -4.7281 2.2908 24.3879 -1.9068 -141.1980 3.7259 -166.8388 -148.2032 39.6872 -175.2510 -1.6243 -19.1424 -39.0158 -141.1026 0.9100 -77.8595 9.8286 2.4444 -75.1983 0.2337 -0.2604 -0.1394 -2.0589 7.0725 37.8479 -45.0414 -17.7206 145.4587 9.6702 2.6299 107.2290 -0.0935 -0.0741 -0.1150 -36.7462 22.5112 101.1039 -4.4461 56.5067 -3.2785 -0.2454 -16.1029 -2.5446 -0.4210 -3.6628 8.6130 -45.8265 -17.1731 83.7044 0.9726 36.2379 10.0279 -14.2588 3.6291 2.0166 0.6463 -33.2935 -19.3928 
0.0000 93.1000 0.0000 -73.5011 -11.7765 -173.0645 -70.9964 -0.6515 87.7723 94.1089 72.3595 -5.1682 1.9456 23.4296 -2.3677 -141.2034 4.0014 -166.8088 -148.2998 39.1425 -175.6007 -2.3861 -19.0432 -38.9621 -140.4420 0.0953 -77.0470 9.7516 2.0228 -75.2755 -0.0255 -0.0333 -0.0833 -2.6974 6.7698 38.1820 -43.8378 -18.2006 144.5710 9.3686 2.7145 107.5326 -0.2139 -0.3816 -0.3222 -37.3925 22.9918 100.0549 -4.8126 56.0471 -2.9675 -1.2707 -15.2759 -2.0503 0.0170 -3.6033 7.5724 -47.1787 -16.3210 83.2544 1.2215 37.0236 11.5621 -15.7897 3.1034 1.3337 0.0241 -34.8238 -23.2885 
0.0000 93.1000 0.0000 -74.3754 -12.0967 -174.0000 -70.8266 0.0639 87.7431 94.1069 72.3480 -4.6960 2.0184 23.2075 -2.0550 -141.2123 3.0171 -166.9423 -146.9489 38.9310 -176.3450 -1.9276 -19.1720 -39.2779 -141.0100 -0.3107 -74.8273 8.6381 1.9390 -75.1446 -0.0633 -0.3389 0.1493 -2.4372 6.8866 37.9538 -43.9191 -18.1358 144.2800 8.9077 2.7411 107.2403 0.0256 -0.0004 -0.2562 -37.6224 23.3552 100.8962 -5.1558 55.1865 -3.2210 -0.9545 -14.8566 -2.1686 -0.2096 -3.8622 7.1464 -46.9773 -15.9861 84.2096 2.2760 38.1218 12.9000 -16.9256 2.2277 1.7659 0.9078 -36.4088 -26.5722 
0.0000 93.1000 0.0000 -74.0073 -12.1415 -173.6547 -70.9086 0.0869 87.8845 93.0235 72.2195 -3.8324 2.7967 23.1747 -2.6696 -140.9043 2.8146 -167.0378 -146.8374 37.8831 -176.5958 -1.9337 -19.2241 -38.9998 -140.9949 -0.0421 -74.2190 7.7050 1.6374 -74.2333 0.0291 -0.2933 0.3681 -2.3447 6.9188 37.2616 -43.9811 -18.4977 144.1925 8.4479 2.1598 107.4558 0.1819 -0.0220 -0.1396 -37.9084 24.2562 101.9500 -5.0103 54.4228 -4.1481 -1.0273 -14.0384 -2.0895 0.0481 -3.2315 4.6064 -47.0406 -15.8020 84.2298 2.5260 38.2715 9.7898 -14.9201 -0.1829 1.4618 0.2622 -31.6851 -21.9141 
0.0000 93.1000 0.0000 -74.2956 -12.9067 -173.7740 -70.9192 0.5136 87.8368 91.0107 72.0477 -1.8654 3.3590 22.3758 -2.1762 -140.0325 2.8672 -166.9189 -146.2248 37.9686 -176.9779 -1.5050 -19.0559 -38.6335 -140.2980 -0.7484 -74.2530 6.2659 0.8296 -74.1943 0.4289 -0.7819 -0.0651 -2.3579 7.0778 36.7924 -43.0279 -17.8558 144.2738 10.1350 2.7153 107.3068 0.0383 0.5840 -0.0388 -39.0854 24.0289 102.7996 -4.4718 53.0120 -5.3842 -1.9024 -12.8240 -1.5338 0.8879 -4.9362 2.2900 -45.8773 -16.9066 85.0561 2.2597 39.2213 10.0279 -13.7980 -1.3976 1.4282 0.6214 -29.8279 -19.6528 
0.0000 93.1000 0.0000 -74.0467 -13.0022 -173.9162 -71.0674 0.3268 87.9551 89.9923 72.0102 -0.7619 3.8964 21.9733 -2.0039 -140.2224 3.0434 -167.1685 -145.6827 37.8872 -177.9300 -1.6730 -18.7774 -38.9097 -141.2343 -0.7555 -73.6475 6.1115 0.9067 -74.4606 -0.0509 -0.4657 0.0056 -2.2479 6.8756 37.2453 -43.1317 -17.9776 144.2740 11.5718 3.7827 107.3480 0.0679 0.2906 0.5015 -39.0623 24.8298 104.2601 -3.9472 52.2603 -4.3013 -2.5568 -12.4369 -1.5089 1.8379 -6.5561 -0.4982 -46.0095 -17.0707 84.1170 2.4101 40.4018 9.6792 -14.3517 -0.7779 1.2901 0.9190 -29.9183 -18.8333 
0.0000 93.1000 0.0000 -73.8873 -13.1496 -174.2717 -71.0510 0.6182 87.9734 89.9632 71.4386 -0.8318 4.2078 22.3374 -1.8011 -139.0330 2.9666 -168.1843 -145.7728 37.7880 -177.9694 -1.4050 -19.1016 -39.1132 -141.2546 -1.2889 -73.1931 5.8656 1.9859 -73.3069 0.3260 -0.7824 0.0746 -2.2954 7.0166 37.0305 -43.1629 -18.2815 144.1820 9.5509 3.0722 107.2815 -0.3064 0.6664 0.1469 -40.0189 25.4769 105.0692 -3.5680 51.2423 -4.6909 -3.0732 -11.2007 -1.0259 2.7044 -6.7456 -2.3284 -46.0650 -17.2097 82.8299 3.2417 40.2989 9.7025 -14.3045 -1.0584 1.0999 0.8523 -29.3266 -17.5927 
0.0000 93.1000 0.0000 -74.1378 -13.9494 -174.1516 -71.0115 0.5329 87.9869 88.9524 71.1990 -0.4861 4.4598 22.1941 -1.8905 -138.1548 3.8836 -168.1145 -144.2892 37.8903 -177.8745 -1.5863 -19.0069 -39.2135 -140.6213 -1.2425 -73.3454 6.9705 1.6293 -73.2671 0.1814 -0.6387 0.0883 -2.2315 6.9578 36.9619 -44.1171 -18.8139 143.3532 9.1322 2.5151 107.2006 -0.2268 0.4658 -0.1035 -40.1519 25.1329 105.2564 -4.0752 51.0225 -5.1395 -3.3156 -9.9877 -0.8943 2.9573 -6.6618 -3.0377 -45.8788 -16.7832 83.1983 3.3870 40.5849 8.7140 -14.5397 -1.1811 1.0209 1.6780 -29.2475 -17.2956 
